<svg width="460" height="215" viewBox="0 0 460 215" fill="none" xmlns="http://www.w3.org/2000/svg">
<path d="M460 0H0V215H460V0Z" fill="#121212"/>
<path fill-rule="evenodd" clip-rule="evenodd" d="M267.065 115.183C262.554 115.298 258.149 116.557 254.273 118.84L151.055 74.1054C148.173 62.2075 137.562 53.3806 124.915 53.3806C110.05 53.3806 98 65.5702 98 80.6115C98 95.6503 110.05 107.842 124.915 107.842C129.992 107.847 134.962 106.402 139.228 103.679L241.302 147.402C243.622 160.058 254.587 169.638 267.765 169.638C282.265 169.638 294.09 158.034 294.658 143.504L330.308 116.133C348.575 114.832 363 99.4243 363 80.6115C363 60.9437 347.242 45 327.805 45C308.562 45 292.93 60.6221 292.615 80.0132L267.065 115.183ZM328.84 104.699C342.56 104.699 353.682 93.4467 353.682 79.5645C353.682 65.6799 342.56 54.4276 328.838 54.4276C315.12 54.4276 303.998 65.6799 303.998 79.562C303.998 93.4467 315.122 104.699 328.84 104.699ZM328.84 97.3703C338.557 97.3703 346.44 89.3959 346.44 79.562C346.44 69.7306 338.557 61.7563 328.84 61.7563C319.122 61.7563 311.242 69.7306 311.242 79.562C311.242 89.3959 319.118 97.3703 328.843 97.3703H328.84ZM118.83 94.9348C112.288 92.0183 106.775 83.0245 110.675 73.6642C114.45 64.6105 123.817 62.7185 129.362 64.1867C137.712 66.3953 139.387 73.3626 142.5 71.316C146.055 68.9728 140.16 61.674 131.75 59.0566C122.935 56.3146 109.72 60.136 105.15 72.7992C100.335 86.1354 110.055 96.8393 115.832 99.5041C121.612 102.171 130.935 103.984 130.622 98.8659C130.365 94.6257 125.373 97.8539 118.83 94.9348ZM273.13 126.772C279.815 129.34 285.785 138.03 282.375 147.579C279.075 156.822 269.818 159.21 264.203 158.036C255.753 156.272 253.717 149.402 250.715 151.615C247.29 154.14 253.55 161.115 262.085 163.281C271.028 165.555 284.03 161.04 287.94 148.153C292.057 134.58 281.797 124.407 275.89 122.049C269.98 119.69 260.575 118.377 261.153 123.469C261.628 127.69 266.445 124.205 273.13 126.772Z" fill="#444444"/>
</svg>
