<?xml version="1.0" encoding="UTF-8"?>
<svg version="1.1" id="Layer_1" xmlns="http://www.w3.org/2000/svg" xmlns:xlink="http://www.w3.org/1999/xlink" x="0px" y="0px" width="16px" height="16px" viewBox="0 0 16 16" enable-background="new 0 0 16 16" xml:space="preserve">
<polygon opacity="0.75" fill="#FFFFFF" enable-background="new    " points="7.5,15.134 1.5,13.23 1.5,2.682 7.5,0.634 "/>
<path opacity="0.5" fill="#FFFFFF" enable-background="new    " d="M12.881,1.305L8.344,0.634v14.5l4.584-0.596L12.881,1.305z   M10.344,13.787l-1,0.115V8.5h1V13.787z M12.344,6.947l-1.021-0.075c-0.151,0.222-0.429,0.377-0.72,0.377  c-0.342,0-0.438-0.203-0.574-0.492L9.344,6.688V5.85l0.747,0.075c0.151-0.222,0.292-0.377,0.583-0.377  c0.342,0,0.644,0.203,0.779,0.492l0.891,0.069V6.947z M12.344,4.281l-3-0.26V3.184l3,0.26V4.281z"/>
</svg>