<svg xmlns="http://www.w3.org/2000/svg" xml:space="preserve" fill-rule="evenodd" stroke-linejoin="round" stroke-miterlimit="2" clip-rule="evenodd" viewBox="0 0 16 16"><g fill-rule="nonzero"><path fill="#7bb6ff" d="M0 7h12V3.5l4 4-4 4V8H0V7Z"/><path fill="#fff" d="M8 9h2v5H8V9Zm0-7h2v4H8V2Zm4 11v1h2v-3l-1 1-1 1Zm2-9V2h-2l1 1 1 1ZM3 5c0-.5.5-1 1-1 .5.1.9.5 1 1h2a3.2 3.2 0 0 0-3-3C2.4 2 1 3.4 1 5c0 .3 0 .7.2 1h2.5c-.4-.3-.7-.7-.7-1Zm2 5c0 .7-.2 1.3-.6 1.7 0 .2-.2.3-.4.3-.3 0-1-.6-1-1H1c0 .8.4 1.5 1 2a3 3 0 0 0 2 1c.7 0 1.4-.4 1.9-1 .8-.8 1.2-2 1.1-3l-.2-1H4.4c.3.3.5.7.6 1Z"/></g></svg>